Coordinates

Units are S.I. units (second, meters, Newtons, ...)
If the header above contains a line with 'inDegrees', this indicates whether rotational values are in degrees (yes) or radians (no).

inDegrees=no
nColumns=21
nRows=30
DataType=double
version=3
OpenSimVersion=4.6-2026-03-31-d6972f9e6
endheader
time	/jointset/ground_pelvis/pelvis_tilt/value	/jointset/ground_pelvis/pelvis_list/value	/jointset/ground_pelvis/pelvis_rotation/value	/jointset/ground_pelvis/pelvis_tx/value	/jointset/ground_pelvis/pelvis_ty/value	/jointset/ground_pelvis/pelvis_tz/value	/jointset/hip_r/hip_flexion_r/value	/jointset/hip_r/hip_adduction_r/value	/jointset/hip_r/hip_rotation_r/value	/jointset/walker_knee_r/knee_angle_r/value	/jointset/patellofemoral_r/knee_angle_r_beta/value	/jointset/ankle_r/ankle_angle_r/value	/jointset/subtalar_r/subtalar_angle_r/value	/jointset/hip_l/hip_flexion_l/value	/jointset/hip_l/hip_adduction_l/value	/jointset/hip_l/hip_rotation_l/value	/jointset/walker_knee_l/knee_angle_l/value	/jointset/patellofemoral_l/knee_angle_l_beta/value	/jointset/ankle_l/ankle_angle_l/value	/jointset/subtalar_l/subtalar_angle_l/value
142.496	-0.1602390529388956	0.08782350199226331	0.1277774556096316	1.18779993934643	0.9379575801477064	-0.3482036648066245	-0.2869438953752096	-0.08489086887640689	-0.2639891973736418	0.1969096329545181	0.1969096333327209	-0.5340764391909695	-0.2381139043940996	0.4789051512350341	0.1353774683898541	0.03287889115733013	0.1901717700525978	0.1901717692344241	0.002228421810564511	-0.06392032109197422
142.5	-0.1615054434616196	0.08599672658292573	0.1298986154563343	1.188352256982962	0.9379853945075053	-0.3492327068023608	-0.2855957485534044	-0.08612853036468456	-0.2654440133802372	0.2149853243968197	0.2149853248253626	-0.5470712112545363	-0.24396588112342	0.4770466048284908	0.1360062776242928	0.03346402852677089	0.164489616329679	0.1644896155272441	0.006586958679921096	-0.05109121510070812
142.504	-0.1623313394412466	0.0838044401912932	0.1318426716525311	1.188820345797819	0.9378812794244195	-0.3502311144825008	-0.2834680245546354	-0.08708309293775301	-0.2658033592521832	0.2354276952740583	0.2354276957428263	-0.559007981694672	-0.2519350306045089	0.475224730353602	0.1360743612864713	0.03405924488450935	0.1418231336200171	0.1418231328389463	0.01026532149533116	-0.04103787506622956
142.508	-0.1626666227479104	0.08137189542664754	0.1335990802432448	1.189204793946054	0.9376508785530361	-0.3511950819234765	-0.2806645674064939	-0.08786251968072402	-0.2650739859032071	0.258139207634426	0.2581392081322139	-0.569960041974049	-0.2618935500206905	0.4733771415165389	0.135700567151916	0.03464690776462696	0.1222310694232637	0.1222310686727499	0.01324520993085473	-0.03382726626386427
142.512	-0.1624629981249372	0.07881954921065169	0.1351603496597691	1.18950704675161	0.9372995050621156	-0.3521216620100291	-0.2772948996921672	-0.08856878094730757	-0.2632894066079313	0.2830017582767268	0.2830017587922172	-0.5799990623827028	-0.2736692255477506	0.4714425385323485	0.1349994795983625	0.03520920753736845	0.1057588693345618	0.1057588686273322	0.01552143121990148	-0.02946821501843087
142.516	-0.1616755357420295	0.07626097619972923	0.1365230536413473	1.18972923705851	0.9368319016206235	-0.3530088860041779	-0.2734712322145478	-0.08929665373272398	-0.2605100268927062	0.3098798121170905	0.3098798126395047	-0.5891920128279633	-0.2870520709400795	0.4693641020999465	0.1340801289671383	0.03572750562479692	0.09244076808751424	0.09244076743912075	0.01710338830501391	-0.02791453663015993
142.52	-0.1602644109493382	0.07380133001221206	0.1376887504209886	1.189873990593341	0.9362520228494333	-0.3538558494073039	-0.2693051517281804	-0.09013322240311539	-0.2568222370310044	0.3386240645578083	0.3386240650774912	-0.5975984725787875	-0.301802479958621	0.4670927523386292	0.1330453026071667	0.0361819660369933	0.08230131487345008	0.0823013143010099	0.01801629718535561	-0.02906969954245937
142.524	-0.15819679493231	0.07153620156033094	0.1386647735119081	1.189944215466519	0.935562846493431	-0.354662761191764	-0.2649040743990151	-0.09115786525865452	-0.2523364744983574	0.3690754121287699	0.3690754126378533	-0.6052684825115444	-0.3176602092368875	0.4645902023209474	0.1319912681510102	0.03655164617754456	0.07535632563421363	0.07535632515474228	0.0183020640795075	-0.03279297901823493
142.528	-0.1554487869343499	0.06955078513303721	0.1394648567972808	1.189942887510587	0.9347662245016248	-0.3554309528774986	-0.2603676355017659	-0.09244255512978926	-0.2471843178491117	0.4010690017733484	0.401069002266466	-0.6122410019885823	-0.33435353074993	0.4618316377113137	0.1310077627150467	0.0368151294040158	0.0716132117217548	0.07161321135025825	0.01801973100710288	-0.03890683878375346
142.532	-0.1520072565269842	0.06791932050256341	0.1401095498181245	1.189872844733542	0.9338627870177044	-0.3561628444467648	-0.255784207876007	-0.09405235908490743	-0.2415147160162273	0.4344381562695644	0.4344381567444611	-0.6185429504664641	-0.3516079796296145	0.4588078103061947	0.1301781504743969	0.03695168692376363	0.07107060537389913	0.07107060512146174	0.01724539214863935	-0.04720510319185441
142.536	-0.147871541482199	0.06670482670998264	0.1406263368594787	1.189736603311253	0.9328519053745341	-0.3568618631059046	-0.2512276209367456	-0.09604610390467848	-0.2354894430601133	0.469018060401214	0.4690180608589962	-0.6241887972299064	-0.3691543351665735	0.4555264320303754	0.1295796946404534	0.03694283587115506	0.07371722748322612	0.07371722735542276	0.01607144768397868	-0.05746150926026138
142.54	-0.1430550537199548	0.06595916560750639	0.1410493415838831	1.189536204802094	0.931731710251547	-0.3575323102489828	-0.2467539954055631	-0.09847723215181312	-0.2292778333960619	0.504649181507446	0.5046491819522945	-0.6291806775284963	-0.3867357330268818	0.452012907389891	0.1292839196432621	0.03677407860928682	0.07952999633861381	0.07952999633462884	0.014605010885861	-0.06943836871715184
142.544	-0.1375868014824747	0.06572342128420795	0.1414185608584095	1.189273103442034	0.9304991635984206	-0.3581791769842404	-0.2423986799371579	-0.10139479911336	-0.2230509079705171	0.5411803461850673	0.5411803466234734	-0.6335090127608237	-0.4041138111201853	0.4483104429421719	0.1293570142677266	0.03643664026602008	0.08847145871121033	0.08847145882393069	0.01296535886186281	-0.08289508137719723
142.548	-0.1315126491439678	0.06602850449843473	0.1417786887942596	1.188948103827571	0.92915019652774	-0.3588079167718512	-0.2381735519803367	-0.1048444245152195	-0.2169751407706145	0.5784712448162023	0.5784712452559587	-0.637153581836322	-0.4210735793939395	0.4444794211101074	0.1298601780714485	0.03592907830764292	0.1004867226488704	0.1004867228659103	0.01128053168855246	-0.09759605626187078
142.552	-0.1248960438518908	0.06689587963325866	0.1421776392354887	1.188561357557766	0.9276799296102499	-0.3594241876813568	-0.2340650701865001	-0.1088689929381716	-0.2112061919506661	0.6163941102651068	0.6163941107142774	-0.6400849595258695	-0.437426680607762	0.4405958677796673	0.1308498124221914	0.03525861147627274	0.1155001447467533	0.1155001450520668	0.009683351010543786	-0.1133174828098701
142.556	-0.1178180295307139	0.06833834556200659	0.1426648409980441	1.188112420969568	0.9260829805987348	-0.3600335763895944	-0.2300333176610742	-0.113508985265367	-0.2058828953326038	0.6548344549138053	0.6548344553798544	-0.6422662437720108	-0.4530129592097165	0.4367489736299612	0.1323774943509112	0.03444196893416625	0.1334120598790071	0.1334120602546638	0.008307141911143717	-0.1298525344228949
142.56	-0.1103764925364694	0.07036082342694866	0.1432893526397037	1.187600370167134	0.9243538517930111	-0.3606413161125179	-0.2260120931583498	-0.1188023996245347	-0.2011217302441331	0.6936908839038264	0.6936908843930497	-0.6436550325900766	-0.4677004963903934	0.4330377813541804	0.1344897027109442	0.03350557847607719	0.1540958476528251	0.1540958480806971	0.007281395823196872	-0.1470148171244255
142.564	-0.1026846379545666	0.07296111047312329	0.144097851422118	1.187023966564671	0.9224873827986987	-0.3612520116613881	-0.2219100385137159	-0.1247842520783021	-0.1970119863900083	0.7328740577654412	0.7328740582827358	-0.6442056400457027	-0.4813843747930978	0.4295672110668916	0.1372272842487071	0.03248498067087537	0.1773956111659641	0.1773956116292839	0.006727604585641754	-0.1646400232203186
142.568	-0.09486872807903704	0.07613055311080268	0.1451325661657674	1.186381863230093	0.9204792491037402	-0.3618693847136126	-0.2176127535954231	-0.1314856549170146	-0.1936118074832861	0.7723049141678197	0.7723049147166219	-0.6438715321996025	-0.4939844842104879	0.4264436204500542	0.1406246515208172	0.03142346038704698	0.2031247022108801	0.2031247026956667	0.006755500560162837	-0.1825858596762331
142.572	-0.08706514910766229	0.07985458535559124	0.1464292329754211	1.185672838554054	0.9183264814470385	-0.3624960514080413	-0.2129858076331953	-0.1389324772950205	-0.190945267505659	0.811912300807655	0.8119123013897628	-0.6426079361711735	-0.5054427152794734	0.4237701158065176	0.1447087063951882	0.03036999976006161	0.2310652729726707	0.2310652734689503	0.007459910470203927	-0.200730447268904
142.576	-0.07941687659825906	0.08411309539046613	0.1480151598182207	1.184896041550219	0.9160279796644605	-0.3631333432650288	-0.2078785615035567	-0.1471436219260647	-0.1890006259393241	0.8516301885698027	0.8516301891849489	-0.6403745544776905	-0.5157198947755992	0.4216418106460626	0.1494975043003282	0.02937670948371181	0.2609689811425354	0.2609689816452216	0.008918390666123198	-0.2189694720798978
142.58	-0.07206941102129262	0.08888061142958875	0.1499074898755027	1.184051232783424	0.913584995884002	-0.3637811809176155	-0.2021287336357709	-0.1561289899533285	-0.1877299013991954	0.8913946323677532	0.8913946330130798	-0.6371382969782681	-0.5247927840792054	0.4201411988898859	0.154998707904806	0.02849590265126799	0.2925589247580772	0.2925589252672986	0.01118976478070066	-0.2372124123148942
142.584	-0.06516628756864083	0.09412631541723279	0.15211175406404	1.183139005648346	0.9110015620075325	-0.3644380082024369	-0.195567617975931	-0.1658872299302116	-0.1870498532040643	0.9311406508105682	0.9311406514802895	-0.6328759129064979	-0.5326513989851533	0.4193338082276573	0.1612079074326454	0.02777700337558884	0.3255328245031622	0.3255328250238116	0.0143136125426003	-0.2553782151142728
142.588	-0.05884433376721038	0.09981389727619355	0.154620797712378	1.182160973871696	0.9082848341989551	-0.3651007918735646	-0.1880257843617132	-0.1764033800931661	-0.186844375641705	0.9707992149925511	0.9707992156780667	-0.6275763677093046	-0.5392968160231126	0.4192643337799642	0.168106904565467	0.02726352650172867	0.3595674030429479	0.3595674035834049	0.01831067115978328	-0.2733908534289165
142.592	-0.05322893470088436	0.1059012652103406	0.1574141492042423	1.181119912053618	0.9054453246034442	-0.3657650891615715	-0.1793389813520319	-0.1876465323049806	-0.1869682236215222	1.010294563339284	1.010294564029866	-0.6212427830235731	-0.5447395281749685	0.4199535038234217	0.17566207205374	0.02699038505683369	0.3943238367271746	0.3943238372974615	0.02318402667890676	-0.2911752095721216
142.596	-0.04842956439137533	0.1123401616690371	0.1604578783279049	1.180019838908542	0.9024969974909529	-0.3664251818337539	-0.1693539684846498	-0.1995676818642431	-0.1872519450070114	1.049542032406636	1.049542033090572	-0.6138937813634672	-0.5489983524156605	0.4213958725755171	0.1838229314641741	0.02698175712283154	0.4294540703377724	0.4294540709476395	0.02892091992158739	-0.3086536659863401
142.6	-0.04453573901687129	0.119075792419308	0.1637049770365757	1.178866038640616	0.899457223763318	-0.3670742722367519	-0.157934152526273	-0.2120979680261921	-0.1875078986866786	1.088446502452489	1.088446503118303	-0.6055641459553189	-0.5520998743339414	0.4235585602273088	0.1925211295946663	0.0272496713047558	0.4646077036655021	0.464607704322889	0.03549498581348211	-0.3257436490776442
142.604	-0.04161350598775633	0.1260465913200839	0.1670962710372166	1.177665020590604	0.8963465985006801	-0.3677047338321378	-0.1449649513238935	-0.2251475192493074	-0.1875372132660216	1.126901497294277	1.126901497931599	-0.5963047575266252	-0.5540783737988754	0.4263808795373267	0.2016699906416116	0.02779337746342313	0.4994391147340568	0.4994391154440625	0.04286874491326851	-0.3423562610823183
142.608	-0.03970264206287505	0.1331842055139324	0.1705618322101256	1.176424419126993	0.8931886271284881	-0.3683084050793395	-0.1303586970868476	-0.2386050815047863	-0.1871374494165601	1.164788979026623	1.164788979626457	-0.5861817843633295	-0.5549760946146104	0.429774853832632	0.2111647691069368	0.02859948920366048	0.5336144875834854	0.5336144883477325	0.05099614332035522	-0.35839607585827
142.612	-0.03881477251415975	0.1404137519803705	0.1740228302515177	1.17515283772713	0.8900092874027631	-0.3688769121744411	-0.1140588011012608	-0.252338558500818	-0.1861106338362534	1.201979872831481	1.201979873385976	-0.5752751284505884	-0.5548436671482752	0.4336266849318667	0.2208836762221804	0.02964282529491696	0.5668184373645222	0.566818438180799	0.05982493012880042	-0.3737621047449313
